<svg width="160" height="38" viewBox="0 0 160 38" fill="none" xmlns="http://www.w3.org/2000/svg">
<path d="M19.4141 2.19141C20.625 2.79036 21.8555 3.08984 23.1055 3.08984C24.3685 3.08984 25.8854 2.61458 27.6562 1.66406L28.418 2.58203C26.4909 6.76172 24.1471 8.85156 21.3867 8.85156C20.6185 8.85156 19.6029 8.63021 18.3398 8.1875C14.8372 6.97656 12.2982 6.37109 10.7227 6.37109C9.98047 6.37109 9.23828 6.44271 8.49609 6.58594C6.46484 7.01562 5.44922 8.21354 5.44922 10.1797C5.44922 10.8828 5.63151 11.5404 5.99609 12.1523C6.64714 13.2721 7.67578 13.832 9.08203 13.832C10.4883 13.832 11.7513 12.582 12.8711 10.082C14.082 9.88672 15.2279 9.78906 16.3086 9.78906C18.444 9.78906 20.319 10.1667 21.9336 10.9219C24.3685 12.0547 25.9766 13.6432 26.7578 15.6875C27.0833 16.5339 27.2461 17.5234 27.2461 18.6562C27.2461 19.776 26.9206 21.0781 26.2695 22.5625C25.1628 25.1146 22.8906 27.5234 19.4531 29.7891C18.8151 30.2057 18.0924 30.4141 17.2852 30.4141C16.4518 30.4141 15.5469 30.3034 14.5703 30.082C11.9661 29.5352 9.55729 28.5391 7.34375 27.0938C5.13021 25.6484 3.29427 23.6562 1.83594 21.1172C1.14583 19.9583 0.800781 18.6758 0.800781 17.2695C0.800781 17.1003 0.807292 16.931 0.820312 16.7617C1.27604 10.4336 3.77604 5.35547 8.32031 1.52734C9.17969 0.798177 10.3646 0.440104 11.875 0.453125C14.401 0.492188 16.9141 1.07161 19.4141 2.19141ZM6.28906 15.9805C6.78385 18.2591 8.65885 20.2904 11.9141 22.0742C14.375 23.4154 16.6667 24.0859 18.7891 24.0859C19.4922 24.0859 20.1758 24.0143 20.8398 23.8711C22.168 23.5977 23.1771 23.0768 23.8672 22.3086C24.6224 21.4753 25 20.6029 25 19.6914C25 18.7669 24.6224 17.8685 23.8672 16.9961C23.125 16.1237 21.9466 15.5508 20.332 15.2773C20.1758 15.2513 19.8828 15.2383 19.4531 15.2383C19.0234 15.2383 18.3138 15.4271 17.3242 15.8047C16.0872 16.2734 15.1042 17.3021 14.375 18.8906C14.2578 18.8906 14.1406 18.8906 14.0234 18.8906C11.6927 18.8906 9.11458 17.9206 6.28906 15.9805ZM93.9094 12.7188L103.644 7.01562C106.081 7.94271 108.675 9.39583 111.425 11.375C110.238 12.1667 109.019 13.0052 107.769 13.8906C111.04 16.4219 112.675 18.7552 112.675 20.8906C112.675 21.6927 112.451 22.4635 112.003 23.2031C110.326 25.9427 106.883 28.4792 101.675 30.8125C98.675 28.1562 95.2427 26.7135 91.3781 26.4844L95.3469 23.5938L95.4406 15.9219C95.4615 14.651 94.951 13.5833 93.9094 12.7188ZM105.269 13.2344C103.81 12.151 102.201 11.3542 100.441 10.8438L100.409 16.5312L105.269 13.2344ZM105.238 27.375C106.904 25.9167 107.738 24.3333 107.738 22.625C107.738 21.5208 107.425 20.5052 106.8 19.5781C106.175 18.651 105.253 17.9948 104.034 17.6094C103.586 17.474 103.055 17.4062 102.441 17.4062C101.836 17.4062 101.154 17.6198 100.394 18.0469L100.363 22.2344L98.7844 23.2031C101.826 24.724 103.977 26.1146 105.238 27.375Z" fill="#BFF205"/>
<path d="M41.1875 26.7031L37.7031 30.5156C36.9427 29.9323 36.1771 29.349 35.4062 28.7656C34.6354 28.1719 33.875 27.5833 33.125 27C34.2604 26 34.8385 24.9375 34.8594 23.8125L34.9219 17.3281H33.5625V16.0938C34.9792 14.0625 36.7708 11.4323 38.9375 8.20312L39.7344 8.32812C39.4948 9.46354 39.2812 10.401 39.0938 11.1406C38.9167 11.8698 38.8073 12.7812 38.7656 13.875H41.5156V17.25H38.7188L38.6875 23.9062C38.6875 24.6875 38.7552 25.1302 38.8906 25.2344C39.0365 25.3385 39.8021 25.8281 41.1875 26.7031ZM52.3406 30.4688L50.5906 29.6719L46.825 28.5156C47.45 27.7344 47.7625 26.7917 47.7625 25.6875L47.8875 18.5938C47.8875 18.0729 47.5021 17.5729 46.7313 17.0938L49.0906 14.125L52.8406 16.6094C52.726 17.0365 52.5646 17.3438 52.3563 17.5312C52.1583 17.7083 52.0385 18.0104 51.9969 18.4375L51.2938 25.7656C51.2625 26.0885 51.4708 26.5885 51.9188 27.2656C52.3771 27.9427 52.95 28.2969 53.6375 28.3281C54.7208 25.8385 55.2938 22.5938 55.3563 18.5938C55.3771 18.1042 55.0021 17.6042 54.2313 17.0938L56.5906 14.125L60.1219 16.6094C60.0073 17.0365 59.8875 17.3177 59.7625 17.4531C59.6375 17.5781 59.4448 18.224 59.1844 19.3906C58.924 20.5469 58.3615 22.1458 57.4969 24.1875C56.6427 26.2292 55.7 28.1406 54.6688 29.9219C53.6479 31.6927 52.601 33.2344 51.5281 34.5469C50.4656 35.8698 49.5125 36.75 48.6688 37.1875L45.6375 34.7188C48.6792 33.6042 50.9135 32.1875 52.3406 30.4688ZM71.9313 26.9531C70.1396 28.9323 68.9833 30.2031 68.4625 30.7656C67.6917 30.1823 66.9208 29.599 66.15 29.0156C65.3896 28.4219 64.6292 27.8333 63.8688 27.25C64.5771 26.6354 65.0406 26.0677 65.2594 25.5469C65.4781 25.026 65.5927 24.5312 65.6031 24.0625L65.6813 14.6094C65.6813 13.9323 65.65 13.125 65.5875 12.1875C65.5354 11.25 65.3063 10.4583 64.9 9.8125L70.0563 7.01562C69.775 8.26562 69.6083 9.5625 69.5563 10.9062C69.5146 12.25 69.4938 13.6146 69.4938 15L69.4313 24.1719C69.4313 24.9531 69.5042 25.3958 69.65 25.5C69.7958 25.6042 70.5563 26.0885 71.9313 26.9531ZM83.5531 30.5156L76.0687 27.5312C76.35 25.9688 76.4906 24.3438 76.4906 22.6562C76.4906 20.9583 76.3292 19.1875 76.0062 17.3438L81.3969 14.1719V14.125L81.4281 14.1406H81.4437L87.5219 18.5L81.1937 25.1562C81.6208 25.6667 82.0948 25.9479 82.6156 26C83.1365 26.0521 83.5635 26.0781 83.8969 26.0781C84.2406 26.0781 84.6417 26.0625 85.1 26.0312C85.5687 25.9896 86.1417 25.9583 86.8187 25.9375C86.2667 26.7083 85.7198 27.474 85.1781 28.2344C84.6365 28.9948 84.0948 29.7552 83.5531 30.5156ZM80.9594 18.3438C80.3552 18.3438 80.0531 19.1667 80.0531 20.8125C80.0531 21.75 80.2094 22.6875 80.5219 23.625C80.5219 23.7188 80.5375 23.7969 80.5687 23.8594L83.0844 21.2031C83.2615 21.0156 83.35 20.8281 83.35 20.6406C83.35 20.4531 83.2562 20.2135 83.0687 19.9219C82.8917 19.6302 82.7094 19.3906 82.5219 19.2031C81.8656 18.6302 81.3448 18.3438 80.9594 18.3438ZM118.172 18.4844C120.599 16.8594 122.615 15.3854 124.219 14.0625C125.021 14.4062 125.828 15.0208 126.641 15.9062C128.401 17.7917 129.443 19.7604 129.766 21.8125C129.807 22.0521 129.828 22.2812 129.828 22.5C129.828 23.1875 129.635 23.7448 129.25 24.1719L124.062 30.7812L117.375 27.4844C118.083 26.0156 118.438 24.7448 118.438 23.6719L118.406 20.0312C118.375 19.2812 118.297 18.7656 118.172 18.4844ZM122.375 17.9375L122.328 24.5781C122.422 25.0885 122.781 25.4896 123.406 25.7812C124.031 26.0625 124.443 26.2031 124.641 26.2031C124.849 26.2031 124.99 26.1927 125.062 26.1719C125.979 25.9635 126.438 25.3854 126.438 24.4375C126.438 24.2188 126.411 23.974 126.359 23.7031C126.005 21.9844 125.49 20.6875 124.812 19.8125C124.146 18.9271 123.333 18.3021 122.375 17.9375ZM134.872 18.4844C137.299 16.8594 139.315 15.3854 140.919 14.0625C141.721 14.4062 142.528 15.0208 143.341 15.9062C145.101 17.7917 146.143 19.7604 146.466 21.8125C146.507 22.0521 146.528 22.2812 146.528 22.5C146.528 23.1875 146.335 23.7448 145.95 24.1719L140.762 30.7812L134.075 27.4844C134.783 26.0156 135.137 24.7448 135.137 23.6719L135.106 20.0312C135.075 19.2812 134.997 18.7656 134.872 18.4844ZM139.075 17.9375L139.028 24.5781C139.122 25.0885 139.481 25.4896 140.106 25.7812C140.731 26.0625 141.143 26.2031 141.341 26.2031C141.549 26.2031 141.69 26.1927 141.762 26.1719C142.679 25.9635 143.137 25.3854 143.137 24.4375C143.137 24.2188 143.111 23.974 143.059 23.7031C142.705 21.9844 142.19 20.6875 141.512 19.8125C140.846 18.9271 140.033 18.3021 139.075 17.9375ZM158.681 26.7031L155.197 30.5156C154.436 29.9323 153.671 29.349 152.9 28.7656C152.129 28.1719 151.369 27.5833 150.619 27C151.754 26 152.332 24.9375 152.353 23.8125L152.416 17.3281H151.056V16.0938C152.473 14.0625 154.265 11.4323 156.431 8.20312L157.228 8.32812C156.989 9.46354 156.775 10.401 156.587 11.1406C156.41 11.8698 156.301 12.7812 156.259 13.875H159.009V17.25H156.212L156.181 23.9062C156.181 24.6875 156.249 25.1302 156.384 25.2344C156.53 25.3385 157.296 25.8281 158.681 26.7031Z" fill="black"/>
</svg>
