<svg width="153" height="32" viewBox="0 0 153 32" fill="none" xmlns="http://www.w3.org/2000/svg">
<path d="M15.5312 1.95312C16.5 2.43229 17.4844 2.67188 18.4844 2.67188C19.4948 2.67188 20.7083 2.29167 22.125 1.53125L22.7344 2.26562C21.1927 5.60938 19.3177 7.28125 17.1094 7.28125C16.4948 7.28125 15.6823 7.10417 14.6719 6.75C11.8698 5.78125 9.83854 5.29688 8.57812 5.29688C7.98438 5.29688 7.39062 5.35417 6.79688 5.46875C5.17188 5.8125 4.35938 6.77083 4.35938 8.34375C4.35938 8.90625 4.50521 9.43229 4.79688 9.92188C5.31771 10.8177 6.14062 11.2656 7.26562 11.2656C8.39062 11.2656 9.40104 10.2656 10.2969 8.26562C11.2656 8.10938 12.1823 8.03125 13.0469 8.03125C14.7552 8.03125 16.2552 8.33333 17.5469 8.9375C19.4948 9.84375 20.7812 11.1146 21.4062 12.75C21.6667 13.4271 21.7969 14.2188 21.7969 15.125C21.7969 16.0208 21.5365 17.0625 21.0156 18.25C20.1302 20.2917 18.3125 22.2188 15.5625 24.0312C15.0521 24.3646 14.474 24.5312 13.8281 24.5312C13.1615 24.5312 12.4375 24.4427 11.6562 24.2656C9.57292 23.8281 7.64583 23.0312 5.875 21.875C4.10417 20.7188 2.63542 19.125 1.46875 17.0938C0.916667 16.1667 0.640625 15.1406 0.640625 14.0156C0.640625 13.8802 0.645833 13.7448 0.65625 13.6094C1.02083 8.54688 3.02083 4.48438 6.65625 1.42188C7.34375 0.838542 8.29167 0.552083 9.5 0.5625C11.5208 0.59375 13.5312 1.05729 15.5312 1.95312ZM5.03125 12.9844C5.42708 14.8073 6.92708 16.4323 9.53125 17.8594C11.5 18.9323 13.3333 19.4688 15.0312 19.4688C15.5938 19.4688 16.1406 19.4115 16.6719 19.2969C17.7344 19.0781 18.5417 18.6615 19.0938 18.0469C19.6979 17.3802 20 16.6823 20 15.9531C20 15.2135 19.6979 14.4948 19.0938 13.7969C18.5 13.099 17.5573 12.6406 16.2656 12.4219C16.1406 12.401 15.9062 12.3906 15.5625 12.3906C15.2188 12.3906 14.651 12.5417 13.8594 12.8438C12.8698 13.2188 12.0833 14.0417 11.5 15.3125C11.4062 15.3125 11.3125 15.3125 11.2188 15.3125C9.35417 15.3125 7.29167 14.5365 5.03125 12.9844ZM87.3438 6.71875L97.0781 1.01562C99.5156 1.94271 102.109 3.39583 104.859 5.375C103.672 6.16667 102.453 7.00521 101.203 7.89062C104.474 10.4219 106.109 12.7552 106.109 14.8906C106.109 15.6927 105.885 16.4635 105.438 17.2031C103.76 19.9427 100.318 22.4792 95.1094 24.8125C92.1094 22.1562 88.6771 20.7135 84.8125 20.4844L88.7812 17.5938L88.875 9.92188C88.8958 8.65104 88.3854 7.58333 87.3438 6.71875ZM98.7031 7.23438C97.2448 6.15104 95.6354 5.35417 93.875 4.84375L93.8438 10.5312L98.7031 7.23438ZM98.6719 21.375C100.339 19.9167 101.172 18.3333 101.172 16.625C101.172 15.5208 100.859 14.5052 100.234 13.5781C99.6094 12.651 98.6875 11.9948 97.4688 11.6094C97.0208 11.474 96.4896 11.4062 95.875 11.4062C95.2708 11.4062 94.5885 11.6198 93.8281 12.0469L93.7969 16.2344L92.2188 17.2031C95.2604 18.724 97.4115 20.1146 98.6719 21.375Z" fill="#BFF205"/>
<path d="M34.6219 20.7031L31.1375 24.5156C30.3771 23.9323 29.6115 23.349 28.8406 22.7656C28.0698 22.1719 27.3094 21.5833 26.5594 21C27.6948 20 28.2729 18.9375 28.2938 17.8125L28.3563 11.3281H26.9969V10.0938C28.4135 8.0625 30.2052 5.43229 32.3719 2.20312L33.1688 2.32812C32.9292 3.46354 32.7156 4.40104 32.5281 5.14062C32.351 5.86979 32.2417 6.78125 32.2 7.875H34.95V11.25H32.1531L32.1219 17.9062C32.1219 18.6875 32.1896 19.1302 32.325 19.2344C32.4708 19.3385 33.2365 19.8281 34.6219 20.7031ZM45.775 24.4688L44.025 23.6719L40.2594 22.5156C40.8844 21.7344 41.1969 20.7917 41.1969 19.6875L41.3219 12.5938C41.3219 12.0729 40.9365 11.5729 40.1656 11.0938L42.525 8.125L46.275 10.6094C46.1604 11.0365 45.999 11.3438 45.7906 11.5312C45.5927 11.7083 45.4729 12.0104 45.4313 12.4375L44.7281 19.7656C44.6969 20.0885 44.9052 20.5885 45.3531 21.2656C45.8115 21.9427 46.3844 22.2969 47.0719 22.3281C48.1552 19.8385 48.7281 16.5938 48.7906 12.5938C48.8115 12.1042 48.4365 11.6042 47.6656 11.0938L50.025 8.125L53.5563 10.6094C53.4417 11.0365 53.3219 11.3177 53.1969 11.4531C53.0719 11.5781 52.8792 12.224 52.6188 13.3906C52.3583 14.5469 51.7958 16.1458 50.9313 18.1875C50.0771 20.2292 49.1344 22.1406 48.1031 23.9219C47.0823 25.6927 46.0354 27.2344 44.9625 28.5469C43.9 29.8698 42.9469 30.75 42.1031 31.1875L39.0719 28.7188C42.1135 27.6042 44.3479 26.1875 45.775 24.4688ZM65.3656 20.9531C63.574 22.9323 62.4177 24.2031 61.8969 24.7656C61.126 24.1823 60.3552 23.599 59.5844 23.0156C58.824 22.4219 58.0635 21.8333 57.3031 21.25C58.0115 20.6354 58.475 20.0677 58.6937 19.5469C58.9125 19.026 59.0271 18.5312 59.0375 18.0625L59.1156 8.60938C59.1156 7.93229 59.0844 7.125 59.0219 6.1875C58.9698 5.25 58.7406 4.45833 58.3344 3.8125L63.4906 1.01562C63.2094 2.26562 63.0427 3.5625 62.9906 4.90625C62.949 6.25 62.9281 7.61458 62.9281 9L62.8656 18.1719C62.8656 18.9531 62.9385 19.3958 63.0844 19.5C63.2302 19.6042 63.9906 20.0885 65.3656 20.9531ZM76.9875 24.5156L69.5031 21.5312C69.7844 19.9688 69.925 18.3438 69.925 16.6562C69.925 14.9583 69.7635 13.1875 69.4406 11.3438L74.8313 8.17188V8.125L74.8625 8.14062H74.8781L80.9563 12.5L74.6281 19.1562C75.0552 19.6667 75.5292 19.9479 76.05 20C76.5708 20.0521 76.9979 20.0781 77.3313 20.0781C77.675 20.0781 78.076 20.0625 78.5344 20.0312C79.0031 19.9896 79.576 19.9583 80.2531 19.9375C79.701 20.7083 79.1542 21.474 78.6125 22.2344C78.0708 22.9948 77.5292 23.7552 76.9875 24.5156ZM74.3938 12.3438C73.7896 12.3438 73.4875 13.1667 73.4875 14.8125C73.4875 15.75 73.6438 16.6875 73.9563 17.625C73.9563 17.7188 73.9719 17.7969 74.0031 17.8594L76.5188 15.2031C76.6958 15.0156 76.7844 14.8281 76.7844 14.6406C76.7844 14.4531 76.6906 14.2135 76.5031 13.9219C76.326 13.6302 76.1438 13.3906 75.9563 13.2031C75.3 12.6302 74.7792 12.3438 74.3938 12.3438ZM111.606 12.4844C114.033 10.8594 116.049 9.38542 117.653 8.0625C118.455 8.40625 119.262 9.02083 120.075 9.90625C121.835 11.7917 122.877 13.7604 123.2 15.8125C123.242 16.0521 123.262 16.2812 123.262 16.5C123.262 17.1875 123.07 17.7448 122.684 18.1719L117.497 24.7812L110.809 21.4844C111.518 20.0156 111.872 18.7448 111.872 17.6719L111.841 14.0312C111.809 13.2812 111.731 12.7656 111.606 12.4844ZM115.809 11.9375L115.762 18.5781C115.856 19.0885 116.216 19.4896 116.841 19.7812C117.466 20.0625 117.877 20.2031 118.075 20.2031C118.283 20.2031 118.424 20.1927 118.497 20.1719C119.414 19.9635 119.872 19.3854 119.872 18.4375C119.872 18.2188 119.846 17.974 119.794 17.7031C119.44 15.9844 118.924 14.6875 118.247 13.8125C117.58 12.9271 116.768 12.3021 115.809 11.9375ZM128.306 12.4844C130.733 10.8594 132.749 9.38542 134.353 8.0625C135.155 8.40625 135.963 9.02083 136.775 9.90625C138.535 11.7917 139.577 13.7604 139.9 15.8125C139.942 16.0521 139.963 16.2812 139.963 16.5C139.963 17.1875 139.77 17.7448 139.384 18.1719L134.197 24.7812L127.509 21.4844C128.218 20.0156 128.572 18.7448 128.572 17.6719L128.541 14.0312C128.509 13.2812 128.431 12.7656 128.306 12.4844ZM132.509 11.9375L132.463 18.5781C132.556 19.0885 132.916 19.4896 133.541 19.7812C134.166 20.0625 134.577 20.2031 134.775 20.2031C134.983 20.2031 135.124 20.1927 135.197 20.1719C136.114 19.9635 136.572 19.3854 136.572 18.4375C136.572 18.2188 136.546 17.974 136.494 17.7031C136.14 15.9844 135.624 14.6875 134.947 13.8125C134.28 12.9271 133.468 12.3021 132.509 11.9375ZM152.116 20.7031L148.631 24.5156C147.871 23.9323 147.105 23.349 146.334 22.7656C145.564 22.1719 144.803 21.5833 144.053 21C145.189 20 145.767 18.9375 145.788 17.8125L145.85 11.3281H144.491V10.0938C145.907 8.0625 147.699 5.43229 149.866 2.20312L150.663 2.32812C150.423 3.46354 150.209 4.40104 150.022 5.14062C149.845 5.86979 149.735 6.78125 149.694 7.875H152.444V11.25H149.647L149.616 17.9062C149.616 18.6875 149.683 19.1302 149.819 19.2344C149.965 19.3385 150.73 19.8281 152.116 20.7031Z" fill="white"/>
</svg>
