<svg width="90" height="90" viewBox="0 0 90 90" fill="none" xmlns="http://www.w3.org/2000/svg">
<ellipse rx="5" ry="5" transform="matrix(1 0 0 -1 5 85)" fill="#EDEDED"/>
<ellipse rx="5" ry="5" transform="matrix(1 0 0 -1 5 65)" fill="#EDEDED"/>
<ellipse rx="5" ry="5" transform="matrix(1 0 0 -1 5 45)" fill="#EDEDED"/>
<ellipse rx="5" ry="5" transform="matrix(1 0 0 -1 5 25.0001)" fill="#EDEDED"/>
<ellipse rx="5" ry="5" transform="matrix(1 0 0 -1 5 5.00009)" fill="#EDEDED"/>
<ellipse rx="5" ry="5" transform="matrix(1 0 0 -1 25 85)" fill="#EDEDED"/>
<ellipse rx="5" ry="5" transform="matrix(1 0 0 -1 25 65)" fill="#EDEDED"/>
<ellipse rx="5" ry="5" transform="matrix(1 0 0 -1 25 45)" fill="#EDEDED"/>
<ellipse rx="5" ry="5" transform="matrix(1 0 0 -1 25 25.0001)" fill="#EDEDED"/>
<ellipse rx="5" ry="5" transform="matrix(1 0 0 -1 45 85)" fill="#EDEDED"/>
<ellipse rx="5" ry="5" transform="matrix(1 0 0 -1 45 65)" fill="#EDEDED"/>
<ellipse rx="5" ry="5" transform="matrix(1 0 0 -1 45 45)" fill="#EDEDED"/>
<ellipse rx="5" ry="5" transform="matrix(1 0 0 -1 65 85)" fill="#EDEDED"/>
<ellipse rx="5" ry="5" transform="matrix(1 0 0 -1 65 65)" fill="#EDEDED"/>
<ellipse rx="5" ry="5" transform="matrix(1 0 0 -1 85 85)" fill="#EDEDED"/>
</svg>
